# File created by Blade
# Date/Time:  Wed Jan 21 17:21:31 2015
# Frame Rate: 120.000 fps
#------------------------------------------------------
:FULLY-SPECIFIED
:DEGREES
631
root 18.660578 14.026208 -24.205899 -153.934282 16.848558 -202.596662
Spine 4.415258 30.304069 -21.030504
Head 14.413909 -10.504274 -9.345919
LeftShoulder -3.515665 -7.181698 -1.427153
LeftArm -73.841348 50.836609 -124.908459
LeftForeArm -14.280821 0.000000 41.339246
LeftHand -16.004181 -0.000000 -11.062197
LeftHandThumb1 -26.253704 0.000000 33.147579
RightShoulder 6.408734 -7.965198 6.446225
RightArm 25.976752 10.313961 54.122921
RightForeArm -24.127954 -0.000000 6.517779
RightHand -4.597076 0.000000 6.515387
RightHandThumb1 -24.326973 -0.000000 -32.862282
LeftUpLeg -122.644272 -8.585500 -43.896595
LeftLeg 119.294812 -0.000000 -0.000000
LeftFoot -42.004360 24.968869 -7.007449
LeftToeBase 22.837227 -0.000000 -0.000000
RightUpLeg 17.388620 -10.599627 -23.335538
RightLeg 141.617242 -0.000000 -0.000000
RightFoot 47.161218 -20.128868 -3.335092
RightToeBase 21.240429 -0.000000 -0.000000
632
root 18.646864 14.015171 -24.209383 -153.898354 16.909809 -202.392147
Spine 3.789658 30.190296 -21.207415
Head 14.262435 -10.358335 -9.219494
LeftShoulder -3.562884 -7.006217 -1.334908
LeftArm -74.405526 50.744516 -125.229066
LeftForeArm -14.237650 -0.000000 42.123653
LeftHand -16.313512 -0.000000 -10.794762
LeftHandThumb1 -26.253704 0.000000 33.147579
RightShoulder 6.268913 -7.924148 6.560454
RightArm 25.914555 10.347406 54.350341
RightForeArm -24.036778 -0.000000 6.585779
RightHand -4.699903 0.000000 5.807296
RightHandThumb1 -24.326973 -0.000000 -32.862282
LeftUpLeg -122.757447 -8.511384 -43.784169
LeftLeg 119.383716 -0.000000 -0.000000
LeftFoot -42.220781 24.922699 -7.189723
LeftToeBase 23.110726 -0.000000 -0.000000
RightUpLeg 17.342954 -10.492706 -23.216373
RightLeg 141.632026 -0.000000 -0.000000
RightFoot 47.148214 -20.046123 -3.400836
RightToeBase 21.872346 -0.000000 -0.000000
633
root 18.634327 14.006236 -24.214267 -153.880511 16.986615 -202.211184
Spine 3.181656 30.111704 -21.427007
Head 14.094004 -10.248079 -9.032319
LeftShoulder -3.554558 -6.914531 -1.204694
LeftArm -74.960479 50.565971 -125.521396
LeftForeArm -14.496135 -0.000000 42.858115
LeftHand -16.676776 -0.000000 -10.734067
LeftHandThumb1 -26.253704 0.000000 33.147579
RightShoulder 6.106142 -7.843206 6.687916
RightArm 25.822388 10.338687 54.573787
RightForeArm -23.650441 -0.000000 6.623839
RightHand -4.738799 -0.000000 5.112633
RightHandThumb1 -24.326973 -0.000000 -32.862282
LeftUpLeg -122.853314 -8.418363 -43.685757
LeftLeg 119.486592 -0.000000 -0.000000
LeftFoot -42.384187 24.807299 -7.303110
LeftToeBase 23.217594 -0.000000 -0.000000
RightUpLeg 17.305493 -10.388528 -23.131884
RightLeg 141.641237 -0.000000 -0.000000
RightFoot 47.176412 -19.973454 -3.452446
RightToeBase 21.744456 -0.000000 -0.000000
634
root 18.621647 13.998537 -24.218162 -153.844418 17.068787 -202.037377
Spine 2.579671 30.021520 -21.643687
Head 13.865468 -10.178185 -8.923622
LeftShoulder -3.600922 -6.756269 -1.106726
LeftArm -75.528688 50.492205 -125.863262
LeftForeArm -14.608294 -0.000000 43.494423
LeftHand -16.915184 -0.000000 -10.580951
LeftHandThumb1 -26.253704 0.000000 33.147579
RightShoulder 5.908674 -7.774528 6.767902
RightArm 25.785094 10.474810 54.958681
RightForeArm -23.253036 -0.000000 6.666507
RightHand -4.755650 -0.000000 4.261750
RightHandThumb1 -24.326973 -0.000000 -32.862282
LeftUpLeg -122.968516 -8.343245 -43.579642
LeftLeg 119.582655 -0.000000 -0.000000
LeftFoot -42.536698 24.682109 -7.449344
LeftToeBase 23.332166 -0.000000 -0.000000
RightUpLeg 17.244600 -10.297598 -23.056818
RightLeg 141.667974 -0.000000 -0.000000
RightFoot 47.158718 -19.931567 -3.418813
RightToeBase 21.212702 -0.000000 -0.000000
635
root 18.612074 13.992399 -24.222307 -153.830754 17.167232 -201.902383
Spine 1.994431 29.954898 -21.932172
Head 13.642805 -10.087623 -8.728221
LeftShoulder -3.602336 -6.593225 -0.956608
LeftArm -76.023466 50.385471 -126.176935
LeftForeArm -14.962338 0.000000 44.056784
LeftHand -16.969945 0.000000 -10.559519
LeftHandThumb1 -26.253704 0.000000 33.147579
RightShoulder 5.715170 -7.681622 6.866659
RightArm 25.722263 10.562541 55.336678
RightForeArm -22.694272 -0.000000 6.676589
RightHand -4.713669 -0.000000 3.417228
RightHandThumb1 -24.326973 -0.000000 -32.862282
LeftUpLeg -123.069765 -8.254136 -43.496286
LeftLeg 119.670294 -0.000000 -0.000000
LeftFoot -42.658472 24.563688 -7.573805
LeftToeBase 23.406526 -0.000000 -0.000000
RightUpLeg 17.191631 -10.211381 -23.022111
RightLeg 141.705976 -0.000000 -0.000000
RightFoot 47.211303 -20.002163 -3.451507
RightToeBase 21.442211 -0.000000 -0.000000
